<svg width="20" height="20" viewBox="0 0 20 20" fill="none" xmlns="http://www.w3.org/2000/svg">
<path d="M6.2918 18.9585C13.8371 18.9585 17.9652 12.7058 17.9652 7.28508C17.9652 7.1093 17.9613 6.92961 17.9535 6.75383C18.7566 6.17308 19.4496 5.45374 20 4.62961C19.2521 4.96236 18.458 5.17968 17.6449 5.27414C18.5011 4.76095 19.1421 3.95475 19.4492 3.005C18.6438 3.48232 17.763 3.81904 16.8445 4.0007C16.2257 3.34316 15.4075 2.90779 14.5164 2.7619C13.6253 2.61601 12.711 2.76774 11.9148 3.19361C11.1186 3.61948 10.4848 4.29578 10.1115 5.11795C9.73825 5.94012 9.64619 6.86237 9.84961 7.74211C8.21874 7.66027 6.62328 7.23661 5.16665 6.49861C3.71002 5.7606 2.42474 4.72472 1.39414 3.45812C0.870333 4.36123 0.710047 5.4299 0.945859 6.44694C1.18167 7.46397 1.79589 8.35307 2.66367 8.93352C2.01219 8.91283 1.37498 8.73743 0.804688 8.4218V8.47258C0.804104 9.42032 1.13175 10.339 1.73192 11.0725C2.3321 11.806 3.16777 12.309 4.09687 12.496C3.49338 12.6611 2.85999 12.6852 2.2457 12.5663C2.50788 13.3814 3.01798 14.0943 3.70481 14.6055C4.39164 15.1167 5.22093 15.4007 6.07695 15.4179C4.62369 16.5595 2.82848 17.1786 0.980469 17.1757C0.652739 17.1752 0.325333 17.1551 0 17.1155C1.87738 18.32 4.06128 18.9597 6.2918 18.9585Z" fill="white"/>
</svg>
