<svg width="25" height="25" viewBox="0 0 25 25" fill="none" xmlns="http://www.w3.org/2000/svg">
<g clip-path="url(#clip0)">
<path d="M24.5027 6.44336C24.3613 5.9115 24.0828 5.42609 23.6949 5.03571C23.307 4.64533 22.8234 4.36367 22.2924 4.21893C20.3379 3.69336 12.5254 3.69336 12.5254 3.69336C12.5254 3.69336 4.71289 3.69336 2.75835 4.21893C2.2274 4.36367 1.74379 4.64533 1.3559 5.03571C0.968011 5.42609 0.689459 5.9115 0.548118 6.44336C0.0253907 8.40643 0.0253906 12.5002 0.0253906 12.5002C0.0253906 12.5002 0.0253907 16.5939 0.548118 18.557C0.689459 19.0889 0.968011 19.5743 1.3559 19.9646C1.74379 20.355 2.2274 20.6367 2.75835 20.7814C4.71289 21.307 12.5254 21.307 12.5254 21.307C12.5254 21.307 20.3379 21.307 22.2924 20.7814C22.8234 20.6367 23.307 20.355 23.6949 19.9646C24.0828 19.5743 24.3613 19.0889 24.5027 18.557C25.0254 16.5939 25.0254 12.5002 25.0254 12.5002C25.0254 12.5002 25.0254 8.40643 24.5027 6.44336Z" fill="#414141"/>
<path d="M9.96777 16.2174V8.78271L16.5019 12.5L9.96777 16.2174Z" fill="#FEFEFE"/>
</g>
<defs>
<clipPath id="clip0">
<rect width="25" height="25" fill="white"/>
</clipPath>
</defs>
</svg>
